<svg
                  width="597"
                  height="19"
                  viewBox="0 0 597 19"
                  fill="none"
                  xmlns="http://www.w3.org/2000/svg"
                >
                  <rect
                    x="0.158203"
                    y="8.39355"
                    width="259.658"
                    height="2.09824"
                    fill="#666666"
                    fill-opacity="0.25"
                  />
                  <path
                    d="M291.404 16.9374C290.145 16.9374 288.986 16.6415 287.929 16.0498C286.884 15.4581 286.053 14.6398 285.436 13.5949C284.819 12.5499 284.511 11.3728 284.511 10.0635C284.511 8.75422 284.819 7.5771 285.436 6.53218C286.053 5.48725 286.884 4.67523 287.929 4.09612C288.986 3.50441 290.145 3.20856 291.404 3.20856C292.663 3.20856 293.814 3.50441 294.859 4.09612C295.904 4.67523 296.729 5.48725 297.333 6.53218C297.95 7.5771 298.259 8.75422 298.259 10.0635C298.259 11.3728 297.95 12.5499 297.333 13.5949C296.729 14.6398 295.898 15.4581 294.841 16.0498C293.796 16.6415 292.65 16.9374 291.404 16.9374ZM291.404 13.0283C292.234 13.0283 292.877 12.764 293.33 12.2352C293.783 11.6939 294.01 10.97 294.01 10.0635C294.01 9.14449 293.783 8.4206 293.33 7.89184C292.877 7.35049 292.234 7.07982 291.404 7.07982C290.56 7.07982 289.912 7.35049 289.459 7.89184C289.005 8.4206 288.779 9.14449 288.779 10.0635C288.779 10.97 289.005 11.6939 289.459 12.2352C289.912 12.764 290.56 13.0283 291.404 13.0283ZM306.494 16.8052L303.982 12.0086H303.963V16.8052H299.771V3.43517H306.003C307.085 3.43517 308.011 3.63031 308.779 4.02058C309.547 4.39826 310.119 4.92073 310.497 5.58797C310.887 6.24262 311.083 6.9854 311.083 7.8163C311.083 8.71015 310.831 9.50329 310.327 10.1957C309.836 10.8881 309.125 11.3854 308.193 11.6876L311.101 16.8052H306.494ZM303.963 9.21373H305.625C306.028 9.21373 306.33 9.12561 306.531 8.94935C306.733 8.76051 306.834 8.47095 306.834 8.08068C306.834 7.72818 306.727 7.45121 306.513 7.24978C306.311 7.04835 306.015 6.94763 305.625 6.94763H303.963V9.21373Z"
                    fill="#666666"
                  />
                  <rect
                    x="336.401"
                    y="8.39355"
                    width="259.658"
                    height="2.09824"
                    fill="#666666"
                    fill-opacity="0.25"
                  />
                </svg>